<svg xmlns="http://www.w3.org/2000/svg" viewBox="0 0 843 185" width="843" height="185"><style>.col{animation:peck 26.0s linear infinite}@keyframes peck{0%,1.5%{opacity:1}3%{opacity:.08}72%{opacity:.08}82%,100%{opacity:1}}.flock{animation:fly 26.0s linear infinite}@keyframes fly{0%{transform:translateX(-90px)}100%{transform:translateX(903px)}}.bob{animation:bob 1.8s ease-in-out infinite}@keyframes bob{0%,100%{transform:translateY(0)}50%{transform:translateY(-7px)}}.wing{animation:flap .45s ease-in-out infinite;transform-box:fill-box;transform-origin:92% 88%}@keyframes flap{0%,100%{transform:rotate(24deg)}50%{transform:rotate(-26deg)}}.wing2{animation-delay:-.22s}.eyeglow{animation:eg 2.2s ease-in-out infinite}@keyframes eg{0%,100%{opacity:.25}50%{opacity:.65}}.c2{animation-delay:.55s}.c3{animation-delay:1s}</style><rect width="843" height="185" fill="#0b0b1a" rx="8"/><text x="24" y="28" fill="#a78bfa" font-family="monospace" font-size="14">$ contributions — the flock feeds at midnight</text><g class="col" style="animation-delay:3.14s"><rect x="24" y="64" width="12" height="12" rx="3" fill="#2b2350"/><rect x="24" y="79" width="12" height="12" rx="3" fill="#1a1433"/><rect x="24" y="94" width="12" height="12" rx="3" fill="#1a1433"/><rect x="24" y="109" width="12" height="12" rx="3" fill="#2b2350"/><rect x="24" y="124" width="12" height="12" rx="3" fill="#1a1433"/><rect x="24" y="139" width="12" height="12" rx="3" fill="#1a1433"/><rect x="24" y="154" width="12" height="12" rx="3" fill="#1a1433"/></g><g class="col" style="animation-delay:3.53s"><rect x="39" y="64" width="12" height="12" rx="3" fill="#1a1433"/><rect x="39" y="79" width="12" height="12" rx="3" fill="#1a1433"/><rect x="39" y="94" width="12" height="12" rx="3" fill="#1a1433"/><rect x="39" y="109" width="12" height="12" rx="3" fill="#1a1433"/><rect x="39" y="124" width="12" height="12" rx="3" fill="#1a1433"/><rect x="39" y="139" width="12" height="12" rx="3" fill="#1a1433"/><rect x="39" y="154" width="12" height="12" rx="3" fill="#1a1433"/></g><g class="col" style="animation-delay:3.93s"><rect x="54" y="64" width="12" height="12" rx="3" fill="#7c6bcc"/><rect x="54" y="79" width="12" height="12" rx="3" fill="#1a1433"/><rect x="54" y="94" width="12" height="12" rx="3" fill="#1a1433"/><rect x="54" y="109" width="12" height="12" rx="3" fill="#1a1433"/><rect x="54" y="124" width="12" height="12" rx="3" fill="#1a1433"/><rect x="54" y="139" width="12" height="12" rx="3" fill="#1a1433"/><rect x="54" y="154" width="12" height="12" rx="3" fill="#1a1433"/></g><g class="col" style="animation-delay:4.32s"><rect x="69" y="64" width="12" height="12" rx="3" fill="#1a1433"/><rect x="69" y="79" width="12" height="12" rx="3" fill="#1a1433"/><rect x="69" y="94" width="12" height="12" rx="3" fill="#1a1433"/><rect x="69" y="109" width="12" height="12" rx="3" fill="#1a1433"/><rect x="69" y="124" width="12" height="12" rx="3" fill="#1a1433"/><rect x="69" y="139" width="12" height="12" rx="3" fill="#1a1433"/><rect x="69" y="154" width="12" height="12" rx="3" fill="#1a1433"/></g><g class="col" style="animation-delay:4.71s"><rect x="84" y="64" width="12" height="12" rx="3" fill="#1a1433"/><rect x="84" y="79" width="12" height="12" rx="3" fill="#1a1433"/><rect x="84" y="94" width="12" height="12" rx="3" fill="#1a1433"/><rect x="84" y="109" width="12" height="12" rx="3" fill="#1a1433"/><rect x="84" y="124" width="12" height="12" rx="3" fill="#1a1433"/><rect x="84" y="139" width="12" height="12" rx="3" fill="#1a1433"/><rect x="84" y="154" width="12" height="12" rx="3" fill="#7c6bcc"/></g><g class="col" style="animation-delay:5.11s"><rect x="99" y="64" width="12" height="12" rx="3" fill="#4a3d85"/><rect x="99" y="79" width="12" height="12" rx="3" fill="#2b2350"/><rect x="99" y="94" width="12" height="12" rx="3" fill="#1a1433"/><rect x="99" y="109" width="12" height="12" rx="3" fill="#1a1433"/><rect x="99" y="124" width="12" height="12" rx="3" fill="#1a1433"/><rect x="99" y="139" width="12" height="12" rx="3" fill="#1a1433"/><rect x="99" y="154" width="12" height="12" rx="3" fill="#1a1433"/></g><g class="col" style="animation-delay:5.50s"><rect x="114" y="64" width="12" height="12" rx="3" fill="#1a1433"/><rect x="114" y="79" width="12" height="12" rx="3" fill="#1a1433"/><rect x="114" y="94" width="12" height="12" rx="3" fill="#1a1433"/><rect x="114" y="109" width="12" height="12" rx="3" fill="#2b2350"/><rect x="114" y="124" width="12" height="12" rx="3" fill="#4a3d85"/><rect x="114" y="139" width="12" height="12" rx="3" fill="#1a1433"/><rect x="114" y="154" width="12" height="12" rx="3" fill="#2b2350"/></g><g class="col" style="animation-delay:5.89s"><rect x="129" y="64" width="12" height="12" rx="3" fill="#4a3d85"/><rect x="129" y="79" width="12" height="12" rx="3" fill="#1a1433"/><rect x="129" y="94" width="12" height="12" rx="3" fill="#2b2350"/><rect x="129" y="109" width="12" height="12" rx="3" fill="#1a1433"/><rect x="129" y="124" width="12" height="12" rx="3" fill="#1a1433"/><rect x="129" y="139" width="12" height="12" rx="3" fill="#1a1433"/><rect x="129" y="154" width="12" height="12" rx="3" fill="#1a1433"/></g><g class="col" style="animation-delay:6.28s"><rect x="144" y="64" width="12" height="12" rx="3" fill="#1a1433"/><rect x="144" y="79" width="12" height="12" rx="3" fill="#1a1433"/><rect x="144" y="94" width="12" height="12" rx="3" fill="#1a1433"/><rect x="144" y="109" width="12" height="12" rx="3" fill="#1a1433"/><rect x="144" y="124" width="12" height="12" rx="3" fill="#1a1433"/><rect x="144" y="139" width="12" height="12" rx="3" fill="#1a1433"/><rect x="144" y="154" width="12" height="12" rx="3" fill="#1a1433"/></g><g class="col" style="animation-delay:6.68s"><rect x="159" y="64" width="12" height="12" rx="3" fill="#1a1433"/><rect x="159" y="79" width="12" height="12" rx="3" fill="#1a1433"/><rect x="159" y="94" width="12" height="12" rx="3" fill="#1a1433"/><rect x="159" y="109" width="12" height="12" rx="3" fill="#1a1433"/><rect x="159" y="124" width="12" height="12" rx="3" fill="#1a1433"/><rect x="159" y="139" width="12" height="12" rx="3" fill="#1a1433"/><rect x="159" y="154" width="12" height="12" rx="3" fill="#1a1433"/></g><g class="col" style="animation-delay:7.07s"><rect x="174" y="64" width="12" height="12" rx="3" fill="#1a1433"/><rect x="174" y="79" width="12" height="12" rx="3" fill="#1a1433"/><rect x="174" y="94" width="12" height="12" rx="3" fill="#1a1433"/><rect x="174" y="109" width="12" height="12" rx="3" fill="#1a1433"/><rect x="174" y="124" width="12" height="12" rx="3" fill="#1a1433"/><rect x="174" y="139" width="12" height="12" rx="3" fill="#1a1433"/><rect x="174" y="154" width="12" height="12" rx="3" fill="#1a1433"/></g><g class="col" style="animation-delay:7.46s"><rect x="189" y="64" width="12" height="12" rx="3" fill="#1a1433"/><rect x="189" y="79" width="12" height="12" rx="3" fill="#1a1433"/><rect x="189" y="94" width="12" height="12" rx="3" fill="#1a1433"/><rect x="189" y="109" width="12" height="12" rx="3" fill="#1a1433"/><rect x="189" y="124" width="12" height="12" rx="3" fill="#1a1433"/><rect x="189" y="139" width="12" height="12" rx="3" fill="#1a1433"/><rect x="189" y="154" width="12" height="12" rx="3" fill="#1a1433"/></g><g class="col" style="animation-delay:7.85s"><rect x="204" y="64" width="12" height="12" rx="3" fill="#1a1433"/><rect x="204" y="79" width="12" height="12" rx="3" fill="#1a1433"/><rect x="204" y="94" width="12" height="12" rx="3" fill="#1a1433"/><rect x="204" y="109" width="12" height="12" rx="3" fill="#1a1433"/><rect x="204" y="124" width="12" height="12" rx="3" fill="#1a1433"/><rect x="204" y="139" width="12" height="12" rx="3" fill="#1a1433"/><rect x="204" y="154" width="12" height="12" rx="3" fill="#1a1433"/></g><g class="col" style="animation-delay:8.25s"><rect x="219" y="64" width="12" height="12" rx="3" fill="#1a1433"/><rect x="219" y="79" width="12" height="12" rx="3" fill="#1a1433"/><rect x="219" y="94" width="12" height="12" rx="3" fill="#1a1433"/><rect x="219" y="109" width="12" height="12" rx="3" fill="#1a1433"/><rect x="219" y="124" width="12" height="12" rx="3" fill="#1a1433"/><rect x="219" y="139" width="12" height="12" rx="3" fill="#1a1433"/><rect x="219" y="154" width="12" height="12" rx="3" fill="#1a1433"/></g><g class="col" style="animation-delay:8.64s"><rect x="234" y="64" width="12" height="12" rx="3" fill="#1a1433"/><rect x="234" y="79" width="12" height="12" rx="3" fill="#1a1433"/><rect x="234" y="94" width="12" height="12" rx="3" fill="#1a1433"/><rect x="234" y="109" width="12" height="12" rx="3" fill="#1a1433"/><rect x="234" y="124" width="12" height="12" rx="3" fill="#1a1433"/><rect x="234" y="139" width="12" height="12" rx="3" fill="#1a1433"/><rect x="234" y="154" width="12" height="12" rx="3" fill="#1a1433"/></g><g class="col" style="animation-delay:9.03s"><rect x="249" y="64" width="12" height="12" rx="3" fill="#1a1433"/><rect x="249" y="79" width="12" height="12" rx="3" fill="#1a1433"/><rect x="249" y="94" width="12" height="12" rx="3" fill="#1a1433"/><rect x="249" y="109" width="12" height="12" rx="3" fill="#1a1433"/><rect x="249" y="124" width="12" height="12" rx="3" fill="#1a1433"/><rect x="249" y="139" width="12" height="12" rx="3" fill="#1a1433"/><rect x="249" y="154" width="12" height="12" rx="3" fill="#1a1433"/></g><g class="col" style="animation-delay:9.43s"><rect x="264" y="64" width="12" height="12" rx="3" fill="#1a1433"/><rect x="264" y="79" width="12" height="12" rx="3" fill="#1a1433"/><rect x="264" y="94" width="12" height="12" rx="3" fill="#1a1433"/><rect x="264" y="109" width="12" height="12" rx="3" fill="#1a1433"/><rect x="264" y="124" width="12" height="12" rx="3" fill="#1a1433"/><rect x="264" y="139" width="12" height="12" rx="3" fill="#1a1433"/><rect x="264" y="154" width="12" height="12" rx="3" fill="#1a1433"/></g><g class="col" style="animation-delay:9.82s"><rect x="279" y="64" width="12" height="12" rx="3" fill="#1a1433"/><rect x="279" y="79" width="12" height="12" rx="3" fill="#1a1433"/><rect x="279" y="94" width="12" height="12" rx="3" fill="#1a1433"/><rect x="279" y="109" width="12" height="12" rx="3" fill="#1a1433"/><rect x="279" y="124" width="12" height="12" rx="3" fill="#1a1433"/><rect x="279" y="139" width="12" height="12" rx="3" fill="#1a1433"/><rect x="279" y="154" width="12" height="12" rx="3" fill="#1a1433"/></g><g class="col" style="animation-delay:10.21s"><rect x="294" y="64" width="12" height="12" rx="3" fill="#1a1433"/><rect x="294" y="79" width="12" height="12" rx="3" fill="#1a1433"/><rect x="294" y="94" width="12" height="12" rx="3" fill="#2b2350"/><rect x="294" y="109" width="12" height="12" rx="3" fill="#1a1433"/><rect x="294" y="124" width="12" height="12" rx="3" fill="#1a1433"/><rect x="294" y="139" width="12" height="12" rx="3" fill="#1a1433"/><rect x="294" y="154" width="12" height="12" rx="3" fill="#1a1433"/></g><g class="col" style="animation-delay:10.60s"><rect x="309" y="64" width="12" height="12" rx="3" fill="#1a1433"/><rect x="309" y="79" width="12" height="12" rx="3" fill="#1a1433"/><rect x="309" y="94" width="12" height="12" rx="3" fill="#1a1433"/><rect x="309" y="109" width="12" height="12" rx="3" fill="#1a1433"/><rect x="309" y="124" width="12" height="12" rx="3" fill="#1a1433"/><rect x="309" y="139" width="12" height="12" rx="3" fill="#1a1433"/><rect x="309" y="154" width="12" height="12" rx="3" fill="#1a1433"/></g><g class="col" style="animation-delay:11.00s"><rect x="324" y="64" width="12" height="12" rx="3" fill="#1a1433"/><rect x="324" y="79" width="12" height="12" rx="3" fill="#1a1433"/><rect x="324" y="94" width="12" height="12" rx="3" fill="#1a1433"/><rect x="324" y="109" width="12" height="12" rx="3" fill="#1a1433"/><rect x="324" y="124" width="12" height="12" rx="3" fill="#1a1433"/><rect x="324" y="139" width="12" height="12" rx="3" fill="#1a1433"/><rect x="324" y="154" width="12" height="12" rx="3" fill="#1a1433"/></g><g class="col" style="animation-delay:11.39s"><rect x="339" y="64" width="12" height="12" rx="3" fill="#1a1433"/><rect x="339" y="79" width="12" height="12" rx="3" fill="#2b2350"/><rect x="339" y="94" width="12" height="12" rx="3" fill="#2b2350"/><rect x="339" y="109" width="12" height="12" rx="3" fill="#1a1433"/><rect x="339" y="124" width="12" height="12" rx="3" fill="#1a1433"/><rect x="339" y="139" width="12" height="12" rx="3" fill="#1a1433"/><rect x="339" y="154" width="12" height="12" rx="3" fill="#1a1433"/></g><g class="col" style="animation-delay:11.78s"><rect x="354" y="64" width="12" height="12" rx="3" fill="#1a1433"/><rect x="354" y="79" width="12" height="12" rx="3" fill="#1a1433"/><rect x="354" y="94" width="12" height="12" rx="3" fill="#1a1433"/><rect x="354" y="109" width="12" height="12" rx="3" fill="#1a1433"/><rect x="354" y="124" width="12" height="12" rx="3" fill="#1a1433"/><rect x="354" y="139" width="12" height="12" rx="3" fill="#1a1433"/><rect x="354" y="154" width="12" height="12" rx="3" fill="#1a1433"/></g><g class="col" style="animation-delay:12.18s"><rect x="369" y="64" width="12" height="12" rx="3" fill="#1a1433"/><rect x="369" y="79" width="12" height="12" rx="3" fill="#1a1433"/><rect x="369" y="94" width="12" height="12" rx="3" fill="#1a1433"/><rect x="369" y="109" width="12" height="12" rx="3" fill="#1a1433"/><rect x="369" y="124" width="12" height="12" rx="3" fill="#1a1433"/><rect x="369" y="139" width="12" height="12" rx="3" fill="#1a1433"/><rect x="369" y="154" width="12" height="12" rx="3" fill="#1a1433"/></g><g class="col" style="animation-delay:12.57s"><rect x="384" y="64" width="12" height="12" rx="3" fill="#1a1433"/><rect x="384" y="79" width="12" height="12" rx="3" fill="#1a1433"/><rect x="384" y="94" width="12" height="12" rx="3" fill="#1a1433"/><rect x="384" y="109" width="12" height="12" rx="3" fill="#1a1433"/><rect x="384" y="124" width="12" height="12" rx="3" fill="#1a1433"/><rect x="384" y="139" width="12" height="12" rx="3" fill="#1a1433"/><rect x="384" y="154" width="12" height="12" rx="3" fill="#1a1433"/></g><g class="col" style="animation-delay:12.96s"><rect x="399" y="64" width="12" height="12" rx="3" fill="#1a1433"/><rect x="399" y="79" width="12" height="12" rx="3" fill="#1a1433"/><rect x="399" y="94" width="12" height="12" rx="3" fill="#1a1433"/><rect x="399" y="109" width="12" height="12" rx="3" fill="#1a1433"/><rect x="399" y="124" width="12" height="12" rx="3" fill="#1a1433"/><rect x="399" y="139" width="12" height="12" rx="3" fill="#1a1433"/><rect x="399" y="154" width="12" height="12" rx="3" fill="#1a1433"/></g><g class="col" style="animation-delay:13.35s"><rect x="414" y="64" width="12" height="12" rx="3" fill="#1a1433"/><rect x="414" y="79" width="12" height="12" rx="3" fill="#1a1433"/><rect x="414" y="94" width="12" height="12" rx="3" fill="#1a1433"/><rect x="414" y="109" width="12" height="12" rx="3" fill="#1a1433"/><rect x="414" y="124" width="12" height="12" rx="3" fill="#1a1433"/><rect x="414" y="139" width="12" height="12" rx="3" fill="#1a1433"/><rect x="414" y="154" width="12" height="12" rx="3" fill="#1a1433"/></g><g class="col" style="animation-delay:13.75s"><rect x="429" y="64" width="12" height="12" rx="3" fill="#1a1433"/><rect x="429" y="79" width="12" height="12" rx="3" fill="#1a1433"/><rect x="429" y="94" width="12" height="12" rx="3" fill="#2b2350"/><rect x="429" y="109" width="12" height="12" rx="3" fill="#1a1433"/><rect x="429" y="124" width="12" height="12" rx="3" fill="#1a1433"/><rect x="429" y="139" width="12" height="12" rx="3" fill="#1a1433"/><rect x="429" y="154" width="12" height="12" rx="3" fill="#1a1433"/></g><g class="col" style="animation-delay:14.14s"><rect x="444" y="64" width="12" height="12" rx="3" fill="#1a1433"/><rect x="444" y="79" width="12" height="12" rx="3" fill="#1a1433"/><rect x="444" y="94" width="12" height="12" rx="3" fill="#2b2350"/><rect x="444" y="109" width="12" height="12" rx="3" fill="#7c6bcc"/><rect x="444" y="124" width="12" height="12" rx="3" fill="#1a1433"/><rect x="444" y="139" width="12" height="12" rx="3" fill="#1a1433"/><rect x="444" y="154" width="12" height="12" rx="3" fill="#1a1433"/></g><g class="col" style="animation-delay:14.53s"><rect x="459" y="64" width="12" height="12" rx="3" fill="#1a1433"/><rect x="459" y="79" width="12" height="12" rx="3" fill="#1a1433"/><rect x="459" y="94" width="12" height="12" rx="3" fill="#1a1433"/><rect x="459" y="109" width="12" height="12" rx="3" fill="#1a1433"/><rect x="459" y="124" width="12" height="12" rx="3" fill="#1a1433"/><rect x="459" y="139" width="12" height="12" rx="3" fill="#1a1433"/><rect x="459" y="154" width="12" height="12" rx="3" fill="#2b2350"/></g><g class="col" style="animation-delay:14.92s"><rect x="474" y="64" width="12" height="12" rx="3" fill="#1a1433"/><rect x="474" y="79" width="12" height="12" rx="3" fill="#1a1433"/><rect x="474" y="94" width="12" height="12" rx="3" fill="#1a1433"/><rect x="474" y="109" width="12" height="12" rx="3" fill="#1a1433"/><rect x="474" y="124" width="12" height="12" rx="3" fill="#1a1433"/><rect x="474" y="139" width="12" height="12" rx="3" fill="#2b2350"/><rect x="474" y="154" width="12" height="12" rx="3" fill="#2b2350"/></g><g class="col" style="animation-delay:15.32s"><rect x="489" y="64" width="12" height="12" rx="3" fill="#1a1433"/><rect x="489" y="79" width="12" height="12" rx="3" fill="#1a1433"/><rect x="489" y="94" width="12" height="12" rx="3" fill="#1a1433"/><rect x="489" y="109" width="12" height="12" rx="3" fill="#1a1433"/><rect x="489" y="124" width="12" height="12" rx="3" fill="#1a1433"/><rect x="489" y="139" width="12" height="12" rx="3" fill="#1a1433"/><rect x="489" y="154" width="12" height="12" rx="3" fill="#1a1433"/></g><g class="col" style="animation-delay:15.71s"><rect x="504" y="64" width="12" height="12" rx="3" fill="#1a1433"/><rect x="504" y="79" width="12" height="12" rx="3" fill="#1a1433"/><rect x="504" y="94" width="12" height="12" rx="3" fill="#1a1433"/><rect x="504" y="109" width="12" height="12" rx="3" fill="#1a1433"/><rect x="504" y="124" width="12" height="12" rx="3" fill="#1a1433"/><rect x="504" y="139" width="12" height="12" rx="3" fill="#1a1433"/><rect x="504" y="154" width="12" height="12" rx="3" fill="#1a1433"/></g><g class="col" style="animation-delay:16.10s"><rect x="519" y="64" width="12" height="12" rx="3" fill="#1a1433"/><rect x="519" y="79" width="12" height="12" rx="3" fill="#2b2350"/><rect x="519" y="94" width="12" height="12" rx="3" fill="#1a1433"/><rect x="519" y="109" width="12" height="12" rx="3" fill="#1a1433"/><rect x="519" y="124" width="12" height="12" rx="3" fill="#1a1433"/><rect x="519" y="139" width="12" height="12" rx="3" fill="#1a1433"/><rect x="519" y="154" width="12" height="12" rx="3" fill="#2b2350"/></g><g class="col" style="animation-delay:16.50s"><rect x="534" y="64" width="12" height="12" rx="3" fill="#a78bfa"/><rect x="534" y="79" width="12" height="12" rx="3" fill="#7c6bcc"/><rect x="534" y="94" width="12" height="12" rx="3" fill="#a78bfa"/><rect x="534" y="109" width="12" height="12" rx="3" fill="#4a3d85"/><rect x="534" y="124" width="12" height="12" rx="3" fill="#1a1433"/><rect x="534" y="139" width="12" height="12" rx="3" fill="#4a3d85"/><rect x="534" y="154" width="12" height="12" rx="3" fill="#1a1433"/></g><g class="col" style="animation-delay:16.89s"><rect x="549" y="64" width="12" height="12" rx="3" fill="#1a1433"/><rect x="549" y="79" width="12" height="12" rx="3" fill="#1a1433"/><rect x="549" y="94" width="12" height="12" rx="3" fill="#1a1433"/><rect x="549" y="109" width="12" height="12" rx="3" fill="#1a1433"/><rect x="549" y="124" width="12" height="12" rx="3" fill="#1a1433"/><rect x="549" y="139" width="12" height="12" rx="3" fill="#2b2350"/><rect x="549" y="154" width="12" height="12" rx="3" fill="#1a1433"/></g><g class="col" style="animation-delay:17.28s"><rect x="564" y="64" width="12" height="12" rx="3" fill="#1a1433"/><rect x="564" y="79" width="12" height="12" rx="3" fill="#1a1433"/><rect x="564" y="94" width="12" height="12" rx="3" fill="#1a1433"/><rect x="564" y="109" width="12" height="12" rx="3" fill="#1a1433"/><rect x="564" y="124" width="12" height="12" rx="3" fill="#1a1433"/><rect x="564" y="139" width="12" height="12" rx="3" fill="#1a1433"/><rect x="564" y="154" width="12" height="12" rx="3" fill="#1a1433"/></g><g class="col" style="animation-delay:17.67s"><rect x="579" y="64" width="12" height="12" rx="3" fill="#1a1433"/><rect x="579" y="79" width="12" height="12" rx="3" fill="#1a1433"/><rect x="579" y="94" width="12" height="12" rx="3" fill="#1a1433"/><rect x="579" y="109" width="12" height="12" rx="3" fill="#1a1433"/><rect x="579" y="124" width="12" height="12" rx="3" fill="#1a1433"/><rect x="579" y="139" width="12" height="12" rx="3" fill="#1a1433"/><rect x="579" y="154" width="12" height="12" rx="3" fill="#1a1433"/></g><g class="col" style="animation-delay:18.07s"><rect x="594" y="64" width="12" height="12" rx="3" fill="#1a1433"/><rect x="594" y="79" width="12" height="12" rx="3" fill="#1a1433"/><rect x="594" y="94" width="12" height="12" rx="3" fill="#1a1433"/><rect x="594" y="109" width="12" height="12" rx="3" fill="#1a1433"/><rect x="594" y="124" width="12" height="12" rx="3" fill="#1a1433"/><rect x="594" y="139" width="12" height="12" rx="3" fill="#1a1433"/><rect x="594" y="154" width="12" height="12" rx="3" fill="#1a1433"/></g><g class="col" style="animation-delay:18.46s"><rect x="609" y="64" width="12" height="12" rx="3" fill="#1a1433"/><rect x="609" y="79" width="12" height="12" rx="3" fill="#1a1433"/><rect x="609" y="94" width="12" height="12" rx="3" fill="#1a1433"/><rect x="609" y="109" width="12" height="12" rx="3" fill="#1a1433"/><rect x="609" y="124" width="12" height="12" rx="3" fill="#1a1433"/><rect x="609" y="139" width="12" height="12" rx="3" fill="#1a1433"/><rect x="609" y="154" width="12" height="12" rx="3" fill="#1a1433"/></g><g class="col" style="animation-delay:18.85s"><rect x="624" y="64" width="12" height="12" rx="3" fill="#1a1433"/><rect x="624" y="79" width="12" height="12" rx="3" fill="#1a1433"/><rect x="624" y="94" width="12" height="12" rx="3" fill="#1a1433"/><rect x="624" y="109" width="12" height="12" rx="3" fill="#7c6bcc"/><rect x="624" y="124" width="12" height="12" rx="3" fill="#1a1433"/><rect x="624" y="139" width="12" height="12" rx="3" fill="#1a1433"/><rect x="624" y="154" width="12" height="12" rx="3" fill="#1a1433"/></g><g class="col" style="animation-delay:19.24s"><rect x="639" y="64" width="12" height="12" rx="3" fill="#1a1433"/><rect x="639" y="79" width="12" height="12" rx="3" fill="#1a1433"/><rect x="639" y="94" width="12" height="12" rx="3" fill="#1a1433"/><rect x="639" y="109" width="12" height="12" rx="3" fill="#1a1433"/><rect x="639" y="124" width="12" height="12" rx="3" fill="#1a1433"/><rect x="639" y="139" width="12" height="12" rx="3" fill="#1a1433"/><rect x="639" y="154" width="12" height="12" rx="3" fill="#1a1433"/></g><g class="col" style="animation-delay:19.64s"><rect x="654" y="64" width="12" height="12" rx="3" fill="#1a1433"/><rect x="654" y="79" width="12" height="12" rx="3" fill="#1a1433"/><rect x="654" y="94" width="12" height="12" rx="3" fill="#1a1433"/><rect x="654" y="109" width="12" height="12" rx="3" fill="#1a1433"/><rect x="654" y="124" width="12" height="12" rx="3" fill="#1a1433"/><rect x="654" y="139" width="12" height="12" rx="3" fill="#1a1433"/><rect x="654" y="154" width="12" height="12" rx="3" fill="#1a1433"/></g><g class="col" style="animation-delay:20.03s"><rect x="669" y="64" width="12" height="12" rx="3" fill="#1a1433"/><rect x="669" y="79" width="12" height="12" rx="3" fill="#1a1433"/><rect x="669" y="94" width="12" height="12" rx="3" fill="#1a1433"/><rect x="669" y="109" width="12" height="12" rx="3" fill="#1a1433"/><rect x="669" y="124" width="12" height="12" rx="3" fill="#1a1433"/><rect x="669" y="139" width="12" height="12" rx="3" fill="#1a1433"/><rect x="669" y="154" width="12" height="12" rx="3" fill="#1a1433"/></g><g class="col" style="animation-delay:20.42s"><rect x="684" y="64" width="12" height="12" rx="3" fill="#1a1433"/><rect x="684" y="79" width="12" height="12" rx="3" fill="#1a1433"/><rect x="684" y="94" width="12" height="12" rx="3" fill="#1a1433"/><rect x="684" y="109" width="12" height="12" rx="3" fill="#1a1433"/><rect x="684" y="124" width="12" height="12" rx="3" fill="#1a1433"/><rect x="684" y="139" width="12" height="12" rx="3" fill="#1a1433"/><rect x="684" y="154" width="12" height="12" rx="3" fill="#2b2350"/></g><g class="col" style="animation-delay:20.82s"><rect x="699" y="64" width="12" height="12" rx="3" fill="#1a1433"/><rect x="699" y="79" width="12" height="12" rx="3" fill="#1a1433"/><rect x="699" y="94" width="12" height="12" rx="3" fill="#1a1433"/><rect x="699" y="109" width="12" height="12" rx="3" fill="#1a1433"/><rect x="699" y="124" width="12" height="12" rx="3" fill="#1a1433"/><rect x="699" y="139" width="12" height="12" rx="3" fill="#2b2350"/><rect x="699" y="154" width="12" height="12" rx="3" fill="#2b2350"/></g><g class="col" style="animation-delay:21.21s"><rect x="714" y="64" width="12" height="12" rx="3" fill="#1a1433"/><rect x="714" y="79" width="12" height="12" rx="3" fill="#4a3d85"/><rect x="714" y="94" width="12" height="12" rx="3" fill="#2b2350"/><rect x="714" y="109" width="12" height="12" rx="3" fill="#7c6bcc"/><rect x="714" y="124" width="12" height="12" rx="3" fill="#7c6bcc"/><rect x="714" y="139" width="12" height="12" rx="3" fill="#4a3d85"/><rect x="714" y="154" width="12" height="12" rx="3" fill="#1a1433"/></g><g class="col" style="animation-delay:21.60s"><rect x="729" y="64" width="12" height="12" rx="3" fill="#2b2350"/><rect x="729" y="79" width="12" height="12" rx="3" fill="#1a1433"/><rect x="729" y="94" width="12" height="12" rx="3" fill="#2b2350"/><rect x="729" y="109" width="12" height="12" rx="3" fill="#2b2350"/><rect x="729" y="124" width="12" height="12" rx="3" fill="#1a1433"/><rect x="729" y="139" width="12" height="12" rx="3" fill="#1a1433"/><rect x="729" y="154" width="12" height="12" rx="3" fill="#1a1433"/></g><g class="col" style="animation-delay:21.99s"><rect x="744" y="64" width="12" height="12" rx="3" fill="#1a1433"/><rect x="744" y="79" width="12" height="12" rx="3" fill="#1a1433"/><rect x="744" y="94" width="12" height="12" rx="3" fill="#1a1433"/><rect x="744" y="109" width="12" height="12" rx="3" fill="#2b2350"/><rect x="744" y="124" width="12" height="12" rx="3" fill="#1a1433"/><rect x="744" y="139" width="12" height="12" rx="3" fill="#1a1433"/><rect x="744" y="154" width="12" height="12" rx="3" fill="#1a1433"/></g><g class="col" style="animation-delay:22.39s"><rect x="759" y="64" width="12" height="12" rx="3" fill="#1a1433"/><rect x="759" y="79" width="12" height="12" rx="3" fill="#1a1433"/><rect x="759" y="94" width="12" height="12" rx="3" fill="#1a1433"/><rect x="759" y="109" width="12" height="12" rx="3" fill="#1a1433"/><rect x="759" y="124" width="12" height="12" rx="3" fill="#2b2350"/><rect x="759" y="139" width="12" height="12" rx="3" fill="#4a3d85"/><rect x="759" y="154" width="12" height="12" rx="3" fill="#1a1433"/></g><g class="col" style="animation-delay:22.78s"><rect x="774" y="64" width="12" height="12" rx="3" fill="#1a1433"/><rect x="774" y="79" width="12" height="12" rx="3" fill="#1a1433"/><rect x="774" y="94" width="12" height="12" rx="3" fill="#1a1433"/><rect x="774" y="109" width="12" height="12" rx="3" fill="#1a1433"/><rect x="774" y="124" width="12" height="12" rx="3" fill="#1a1433"/><rect x="774" y="139" width="12" height="12" rx="3" fill="#1a1433"/><rect x="774" y="154" width="12" height="12" rx="3" fill="#1a1433"/></g><g class="col" style="animation-delay:23.17s"><rect x="789" y="64" width="12" height="12" rx="3" fill="#1a1433"/><rect x="789" y="79" width="12" height="12" rx="3" fill="#1a1433"/><rect x="789" y="94" width="12" height="12" rx="3" fill="#1a1433"/><rect x="789" y="109" width="12" height="12" rx="3" fill="#1a1433"/><rect x="789" y="124" width="12" height="12" rx="3" fill="#a78bfa"/><rect x="789" y="139" width="12" height="12" rx="3" fill="#4a3d85"/><rect x="789" y="154" width="12" height="12" rx="3" fill="#a78bfa"/></g><g class="col" style="animation-delay:23.56s"><rect x="804" y="64" width="12" height="12" rx="3" fill="#4a3d85"/><rect x="804" y="79" width="12" height="12" rx="3" fill="#1a1433"/></g><g class="flock"><g transform="translate(0,44)"><g class="bob"><path class="wing wing2" d="M0 -6 Q-12 -24 -30 -28 L-26 -23 L-34 -21 L-27 -17 L-35 -13 L-26 -11 Q-14 -7 0 -2 Z" fill="#08060f" stroke="#2b2350" stroke-width=".4"/><path d="M-18 0 L-40 4 L-35 7 L-42 11 L-34 11 L-38 15 L-17 8 Z" fill="#0a0812" stroke="#2b2350" stroke-width=".4"/><path d="M20 -7 Q13 -14 4 -13 Q-6 -12 -12 -7 Q-20 -3 -24 3 L-18 8 Q-8 13 2 10 Q13 7 20 -1 Q22 -4 20 -7 Z" fill="#0c0a16" stroke="#4a3d85" stroke-width=".5" stroke-opacity=".6"/><path d="M2 -12 Q-8 -11 -14 -6 Q-4 -8 6 -9 Z" fill="#6c63b5" opacity=".35"/><path d="M19 -8 L34 -3 L19 -1 Q22 -4.5 19 -8 Z" fill="#0c0a16" stroke="#4a3d85" stroke-width=".5" stroke-opacity=".6"/><line x1="21" y1="-4" x2="30" y2="-3" stroke="#2b2350" stroke-width=".4"/><path class="wing" d="M2 -7 Q-8 -28 -28 -34 L-23 -27 L-33 -26 L-24 -20 L-34 -16 L-23 -13 Q-10 -9 4 -2 Z" fill="#120e20" stroke="#5a4d95" stroke-width=".5" stroke-opacity=".7"/><circle class="eyeglow" cx="13" cy="-8" r="3.2" fill="#ff2b2b" opacity=".35"/><circle cx="13" cy="-8" r="1.5" fill="#ff3131"/></g></g></g><g class="flock c2" opacity=".8"><g transform="translate(-46,30) scale(.7)"><g class="bob"><path class="wing wing2" d="M0 -6 Q-12 -24 -30 -28 L-26 -23 L-34 -21 L-27 -17 L-35 -13 L-26 -11 Q-14 -7 0 -2 Z" fill="#08060f" stroke="#2b2350" stroke-width=".4"/><path d="M-18 0 L-40 4 L-35 7 L-42 11 L-34 11 L-38 15 L-17 8 Z" fill="#0a0812" stroke="#2b2350" stroke-width=".4"/><path d="M20 -7 Q13 -14 4 -13 Q-6 -12 -12 -7 Q-20 -3 -24 3 L-18 8 Q-8 13 2 10 Q13 7 20 -1 Q22 -4 20 -7 Z" fill="#0c0a16" stroke="#4a3d85" stroke-width=".5" stroke-opacity=".6"/><path d="M2 -12 Q-8 -11 -14 -6 Q-4 -8 6 -9 Z" fill="#6c63b5" opacity=".35"/><path d="M19 -8 L34 -3 L19 -1 Q22 -4.5 19 -8 Z" fill="#0c0a16" stroke="#4a3d85" stroke-width=".5" stroke-opacity=".6"/><line x1="21" y1="-4" x2="30" y2="-3" stroke="#2b2350" stroke-width=".4"/><path class="wing" d="M2 -7 Q-8 -28 -28 -34 L-23 -27 L-33 -26 L-24 -20 L-34 -16 L-23 -13 Q-10 -9 4 -2 Z" fill="#120e20" stroke="#5a4d95" stroke-width=".5" stroke-opacity=".7"/><circle class="eyeglow" cx="13" cy="-8" r="3.2" fill="#ff2b2b" opacity=".35"/><circle cx="13" cy="-8" r="1.5" fill="#ff3131"/></g></g></g><g class="flock c3" opacity=".6"><g transform="translate(-84,54) scale(.55)"><g class="bob"><path class="wing wing2" d="M0 -6 Q-12 -24 -30 -28 L-26 -23 L-34 -21 L-27 -17 L-35 -13 L-26 -11 Q-14 -7 0 -2 Z" fill="#08060f" stroke="#2b2350" stroke-width=".4"/><path d="M-18 0 L-40 4 L-35 7 L-42 11 L-34 11 L-38 15 L-17 8 Z" fill="#0a0812" stroke="#2b2350" stroke-width=".4"/><path d="M20 -7 Q13 -14 4 -13 Q-6 -12 -12 -7 Q-20 -3 -24 3 L-18 8 Q-8 13 2 10 Q13 7 20 -1 Q22 -4 20 -7 Z" fill="#0c0a16" stroke="#4a3d85" stroke-width=".5" stroke-opacity=".6"/><path d="M2 -12 Q-8 -11 -14 -6 Q-4 -8 6 -9 Z" fill="#6c63b5" opacity=".35"/><path d="M19 -8 L34 -3 L19 -1 Q22 -4.5 19 -8 Z" fill="#0c0a16" stroke="#4a3d85" stroke-width=".5" stroke-opacity=".6"/><line x1="21" y1="-4" x2="30" y2="-3" stroke="#2b2350" stroke-width=".4"/><path class="wing" d="M2 -7 Q-8 -28 -28 -34 L-23 -27 L-33 -26 L-24 -20 L-34 -16 L-23 -13 Q-10 -9 4 -2 Z" fill="#120e20" stroke="#5a4d95" stroke-width=".5" stroke-opacity=".7"/><circle class="eyeglow" cx="13" cy="-8" r="3.2" fill="#ff2b2b" opacity=".35"/><circle cx="13" cy="-8" r="1.5" fill="#ff3131"/></g></g></g></svg>